<svg width="58" height="58" viewBox="0 0 58 58" fill="none" xmlns="http://www.w3.org/2000/svg">
<g clip-path="url(#clip0_8_3)">
<path d="M29 58C45.0163 58 58 45.0163 58 29C58 12.9837 45.0163 0 29 0C12.9837 0 0 12.9837 0 29C0 45.0163 12.9837 58 29 58Z" fill="#2C3E50"/>
<path d="M46.98 20.3C48.5816 20.3 49.88 19.0016 49.88 17.4C49.88 15.7984 48.5816 14.5 46.98 14.5C45.3784 14.5 44.08 15.7984 44.08 17.4C44.08 19.0016 45.3784 20.3 46.98 20.3Z" fill="#F0C419"/>
<path d="M45.82 15.95C47.299 15.689 48.169 14.8184 48.43 13.34C48.691 14.8184 49.561 15.689 51.04 15.95C49.561 16.211 48.691 17.081 48.43 18.56C48.169 17.081 47.299 16.2116 45.82 15.95Z" fill="white"/>
<path opacity="0.6" d="M35.67 9.27998C36.1505 9.27998 36.54 8.89047 36.54 8.40998C36.54 7.92949 36.1505 7.53998 35.67 7.53998C35.1895 7.53998 34.8 7.92949 34.8 8.40998C34.8 8.89047 35.1895 9.27998 35.67 9.27998Z" fill="white"/>
<path opacity="0.2" d="M25.81 7.53999C26.2905 7.53999 26.68 7.15048 26.68 6.66999C26.68 6.1895 26.2905 5.79999 25.81 5.79999C25.3295 5.79999 24.94 6.1895 24.94 6.66999C24.94 7.15048 25.3295 7.53999 25.81 7.53999Z" fill="white"/>
<path opacity="0.6" d="M9.57 21.46C10.0505 21.46 10.44 21.0705 10.44 20.59C10.44 20.1095 10.0505 19.72 9.57 19.72C9.08951 19.72 8.7 20.1095 8.7 20.59C8.7 21.0705 9.08951 21.46 9.57 21.46Z" fill="white"/>
<path opacity="0.3" d="M20.59 49.3C21.0705 49.3 21.46 48.9105 21.46 48.43C21.46 47.9495 21.0705 47.56 20.59 47.56C20.1095 47.56 19.72 47.9495 19.72 48.43C19.72 48.9105 20.1095 49.3 20.59 49.3Z" fill="white"/>
<path opacity="0.4" d="M39.73 48.14C40.2105 48.14 40.6 47.7505 40.6 47.27C40.6 46.7895 40.2105 46.4 39.73 46.4C39.2495 46.4 38.86 46.7895 38.86 47.27C38.86 47.7505 39.2495 48.14 39.73 48.14Z" fill="white"/>
<path opacity="0.6" d="M49.59 36.54C50.0705 36.54 50.46 36.1505 50.46 35.67C50.46 35.1895 50.0705 34.8 49.59 34.8C49.1095 34.8 48.72 35.1895 48.72 35.67C48.72 36.1505 49.1095 36.54 49.59 36.54Z" fill="white"/>
<path d="M29 43.5C37.0081 43.5 43.5 37.0081 43.5 29C43.5 20.9919 37.0081 14.5 29 14.5C20.9919 14.5 14.5 20.9919 14.5 29C14.5 37.0081 20.9919 43.5 29 43.5Z" fill="#3B97D3"/>
<path opacity="0.88" d="M42.9183 33.0646C39.8599 38.2104 31.4029 42.0036 27.7652 43.4437C28.1723 43.4785 28.5836 43.5 29 43.5C35.5963 43.5 41.1603 39.0932 42.9183 33.0646ZM39.4058 26.68C39.4417 22.1125 38.7991 22.0649 34.7658 22.62C32.7903 22.892 31.0503 23.617 28.3858 24.94L22.5858 30.16C22.5858 30.16 21.6937 28.4768 20.2658 30.74C19.3053 32.2625 19.6858 33.64 19.6858 33.64C19.6858 33.64 21.4258 31.7185 23.1658 31.32C24.0282 31.1222 30.1438 27.8939 30.1258 31.9C30.1095 35.5279 23.2847 40.4335 21.7274 41.5425C21.9553 41.6747 22.1867 41.8012 22.4222 41.9212C23.3931 41.7722 25.0995 41.2757 27.8052 40.0206C31.8298 38.153 39.3652 31.7973 39.4058 26.68Z" fill="white"/>
<path d="M42.9183 33.0646C43.3041 31.7442 43.5 30.3756 43.5 29C43.5 21.8683 38.3496 15.9436 31.5665 14.7308C31.3531 14.8236 30.8978 14.9379 30.1258 15.08C25.063 16.0097 20.3563 19.0675 17.3658 23.78C16.7313 24.505 16.2058 26.68 16.2058 26.68C16.2058 26.68 16.0933 27.84 16.7858 27.84C17.4783 27.84 16.9894 25.9956 17.9458 24.94C18.8703 23.9204 20.8429 20.6573 23.7458 19.14C25.6227 18.1331 31.6303 16.6738 34.7658 19.14C38.0062 21.7007 29.732 16.7951 25.4614 23.2899C24.389 24.9209 23.6768 22.2134 22.0058 23.2C20.1376 24.3026 20.8098 24.5955 18.5258 29.58C16.8525 33.2323 18.1714 36.6867 17.755 38.1518C18.8641 39.5122 20.2101 40.6609 21.728 41.5425C23.2853 40.4335 30.1095 35.5279 30.1264 31.9C30.1443 27.8945 24.0288 31.1222 23.1664 31.32C21.4264 31.7185 19.6864 33.64 19.6864 33.64C19.6864 33.64 19.3059 32.2625 20.2664 30.74C21.6943 28.4768 22.5864 30.16 22.5864 30.16C22.5864 30.16 25.7218 26.263 28.3864 24.94C31.0509 23.617 32.7909 22.892 34.7664 22.62C38.7997 22.0649 39.4429 22.1125 39.4064 26.68C39.3658 31.7973 31.8304 38.153 27.8064 40.02C25.1001 41.2757 23.3943 41.7716 22.4234 41.9207C24.0885 42.77 25.903 43.2871 27.7658 43.4432C31.4029 42.0036 39.8599 38.2104 42.9183 33.0646Z" fill="#3B97D3"/>
<path opacity="0.88" d="M18.5258 29.58C20.8098 24.5955 20.1376 24.3026 22.0058 23.2C23.6773 22.2134 24.389 24.9209 25.4614 23.2899C29.732 16.7951 38.0062 21.7007 34.7658 19.14C31.6303 16.6738 25.6227 18.1331 23.7458 19.14C20.8429 20.6573 18.8703 23.9204 17.9458 24.94C16.9894 25.9956 17.4783 27.84 16.7858 27.84L16.2058 26.68C16.2058 26.68 16.7313 24.505 17.3658 23.78C20.3563 19.0675 25.063 16.0097 30.1258 15.08C30.8978 14.9385 31.3531 14.8236 31.5665 14.7308C30.7195 14.5785 29.8606 14.5012 29 14.5C20.9919 14.5 14.5 20.9919 14.5 29C14.4954 32.335 15.6456 35.5687 17.755 38.1518C18.172 36.6867 16.8525 33.2323 18.5258 29.58Z" fill="white"/>
</g>
<defs>
<clipPath id="clip0_8_3">
<rect width="58" height="58" fill="white"/>
</clipPath>
</defs>
</svg>
