<svg width="379" height="130" viewBox="0 0 379 130" fill="none" xmlns="http://www.w3.org/2000/svg">
<path d="M24.0703 78.3516V95.7539C24.0703 97.2936 24.0166 98.7975 23.9092 100.266C23.8376 101.734 23.5332 103.041 22.9961 104.187C22.4948 105.332 21.6891 106.263 20.5791 106.979C19.4691 107.66 17.8757 108 15.7988 108C13.7936 108 12.236 107.66 11.126 106.979C10.0518 106.263 9.264 105.332 8.7627 104.187C8.26139 103.041 7.95703 101.734 7.84961 100.266C7.77799 98.7975 7.74219 97.2936 7.74219 95.7539V45.0508C7.74219 43.5111 7.77799 42.0072 7.84961 40.5391C7.95703 39.071 8.26139 37.764 8.7627 36.6182C9.264 35.4723 10.0518 34.5592 11.126 33.8789C12.236 33.1628 13.7936 32.8047 15.7988 32.8047H33.5234C37.9635 33.0195 41.9382 33.9505 45.4473 35.5977C46.9512 36.3138 48.4014 37.209 49.7979 38.2832C51.2301 39.3574 52.5013 40.6823 53.6113 42.2578C54.7572 43.7975 55.6702 45.6416 56.3506 47.79C57.0309 49.9027 57.3711 52.3555 57.3711 55.1484C57.3711 58.9798 56.7624 62.3457 55.5449 65.2461C54.3633 68.1107 52.6266 70.5277 50.335 72.4971C48.0791 74.4307 45.304 75.8988 42.0098 76.9014C38.7513 77.8682 35.0632 78.3516 30.9453 78.3516H24.0703ZM31.375 65.5684C33.1654 65.4609 34.7767 65.0312 36.209 64.2793C36.8177 63.957 37.4085 63.5452 37.9814 63.0439C38.5544 62.5426 39.0736 61.9339 39.5391 61.2178C40.0046 60.4658 40.3626 59.5885 40.6133 58.5859C40.8997 57.5833 41.043 56.4375 41.043 55.1484C41.043 53.931 40.8997 52.8747 40.6133 51.9795C40.3626 51.0485 40.0225 50.2607 39.5928 49.6162C39.1631 48.9359 38.6797 48.363 38.1426 47.8975C37.6055 47.432 37.0505 47.0381 36.4775 46.7158C35.1169 46.0355 33.5951 45.6237 31.9121 45.4805H24.0703V65.5684H31.375ZM99.5879 62.3457C99.5879 65.1387 98.8896 67.1797 97.4932 68.4688C96.1325 69.7578 94.181 70.4023 91.6387 70.4023C91.2806 70.4023 90.7614 70.4382 90.0811 70.5098C89.4365 70.5456 88.7383 70.6888 87.9863 70.9395C87.2344 71.1543 86.4645 71.4945 85.6768 71.96C84.9248 72.3896 84.2266 72.9984 83.582 73.7861C82.9375 74.5381 82.4183 75.5049 82.0244 76.6865C81.6305 77.8682 81.4336 79.2826 81.4336 80.9297V96.291C81.4336 97.7591 81.3441 99.1914 81.165 100.588C81.0218 101.984 80.6637 103.238 80.0908 104.348C79.5179 105.422 78.6943 106.299 77.6201 106.979C76.5459 107.66 75.0957 108 73.2695 108C71.4792 108 70.0648 107.66 69.0264 106.979C67.988 106.299 67.1823 105.422 66.6094 104.348C66.0723 103.238 65.7142 101.984 65.5352 100.588C65.3919 99.1914 65.3203 97.7591 65.3203 96.291V66.2129C65.3203 64.709 65.3919 63.2588 65.5352 61.8623C65.7142 60.43 66.0723 59.1589 66.6094 58.0488C67.1823 56.9388 67.988 56.0615 69.0264 55.417C70.0648 54.7367 71.4792 54.3965 73.2695 54.3965C75.0957 54.3965 76.4922 54.8083 77.459 55.6318C78.4616 56.4196 79.1956 57.458 79.6611 58.7471C80.1266 60.0003 80.3952 61.4147 80.4668 62.9902C80.5384 64.5299 80.5742 66.0339 80.5742 67.502H81.4336C81.9349 65.4967 82.5973 63.6885 83.4209 62.0771C84.2445 60.43 85.1576 59.0514 86.1602 57.9414C87.1628 56.7956 88.237 55.9183 89.3828 55.3096C90.5286 54.7008 91.6745 54.3965 92.8203 54.3965C94.2168 54.3965 95.3447 54.5576 96.2041 54.8799C97.0993 55.1663 97.7975 55.6318 98.2988 56.2764C98.8001 56.9209 99.1403 57.7445 99.3193 58.7471C99.4984 59.7497 99.5879 60.9492 99.5879 62.3457ZM104.959 74.4844C104.959 71.1901 105.407 68.3971 106.302 66.1055C107.197 63.8138 108.343 61.8981 109.739 60.3584C111.172 58.8187 112.747 57.6191 114.466 56.7598C116.22 55.9004 117.939 55.2559 119.622 54.8262C121.305 54.3965 122.863 54.1279 124.295 54.0205C125.763 53.9131 126.909 53.8594 127.732 53.8594C128.556 53.8594 129.684 53.9131 131.116 54.0205C132.549 54.1279 134.07 54.3965 135.682 54.8262C137.329 55.2559 138.976 55.9004 140.623 56.7598C142.306 57.6191 143.81 58.8187 145.135 60.3584C146.495 61.8981 147.605 63.8138 148.465 66.1055C149.324 68.3971 149.754 71.1901 149.754 74.4844V87.8047C149.754 91.099 149.324 93.8919 148.465 96.1836C147.605 98.4753 146.495 100.391 145.135 101.931C143.81 103.47 142.306 104.67 140.623 105.529C138.976 106.389 137.329 107.033 135.682 107.463C134.07 107.893 132.549 108.161 131.116 108.269C129.684 108.376 128.556 108.43 127.732 108.43C126.909 108.43 125.763 108.376 124.295 108.269C122.863 108.161 121.305 107.893 119.622 107.463C117.939 107.033 116.22 106.389 114.466 105.529C112.747 104.67 111.172 103.47 109.739 101.931C108.343 100.391 107.197 98.4753 106.302 96.1836C105.407 93.8919 104.959 91.099 104.959 87.8047V74.4844ZM121.502 91.5645C121.538 92.6029 121.788 93.516 122.254 94.3037C122.648 95.0199 123.257 95.6644 124.08 96.2373C124.939 96.7744 126.157 97.043 127.732 97.043C129.236 97.043 130.382 96.7744 131.17 96.2373C131.993 95.6644 132.602 95.0199 132.996 94.3037C133.426 93.516 133.676 92.6029 133.748 91.5645V72.1211C133.676 71.0469 133.426 70.0622 132.996 69.167C132.602 68.4508 131.993 67.7884 131.17 67.1797C130.382 66.5352 129.236 66.2129 127.732 66.2129C126.157 66.2129 124.939 66.5352 124.08 67.1797C123.257 67.7884 122.648 68.4508 122.254 69.167C121.788 70.0622 121.538 71.0469 121.502 72.1211V91.5645ZM193.045 54.2891C193.654 54.2891 194.298 54.3965 194.979 54.6113C195.659 54.8262 196.375 55.1842 197.127 55.6855C198.201 56.4017 198.971 57.1715 199.437 57.9951C199.902 58.8187 200.135 59.696 200.135 60.627C200.135 61.8086 199.848 63.0439 199.275 64.333C198.702 65.6221 197.986 66.8574 197.127 68.0391L187.566 81.1445L197.127 94.1426C197.951 95.3958 198.649 96.6491 199.222 97.9023C199.83 99.1556 200.135 100.373 200.135 101.555C200.135 102.486 199.902 103.381 199.437 104.24C198.971 105.1 198.201 105.887 197.127 106.604C195.695 107.535 194.37 108 193.152 108C192.4 108 191.684 107.839 191.004 107.517C190.359 107.194 189.733 106.765 189.124 106.228C188.551 105.69 187.978 105.064 187.405 104.348C186.868 103.632 186.313 102.88 185.74 102.092L179.295 93.0684L172.635 102.092C172.133 102.915 171.614 103.685 171.077 104.401C170.54 105.118 169.967 105.744 169.358 106.281C168.785 106.818 168.177 107.248 167.532 107.57C166.888 107.857 166.189 108 165.438 108C164.22 108 162.895 107.535 161.463 106.604C160.389 105.852 159.619 105.064 159.153 104.24C158.688 103.381 158.455 102.486 158.455 101.555C158.455 100.373 158.742 99.1556 159.314 97.9023C159.923 96.6491 160.639 95.3958 161.463 94.1426L170.486 81.1445L161.463 68.0391C160.639 66.7858 159.923 65.5505 159.314 64.333C158.742 63.1156 158.455 61.916 158.455 60.7344C158.455 59.8034 158.688 58.9261 159.153 58.1025C159.619 57.2432 160.389 56.4375 161.463 55.6855C162.895 54.7546 164.22 54.2891 165.438 54.2891C166.189 54.2891 166.888 54.4502 167.532 54.7725C168.177 55.0589 168.785 55.4707 169.358 56.0078C169.967 56.5449 170.54 57.1715 171.077 57.8877C171.614 58.568 172.133 59.3021 172.635 60.0898L179.295 69.1133L185.74 60.0898C186.277 59.3021 186.814 58.568 187.352 57.8877C187.889 57.1715 188.444 56.5449 189.017 56.0078C189.625 55.4707 190.252 55.0589 190.896 54.7725C191.577 54.4502 192.293 54.2891 193.045 54.2891ZM212.596 66.3203C212.596 64.8164 212.667 63.3483 212.811 61.916C212.99 60.4837 213.366 59.2126 213.938 58.1025C214.511 56.9567 215.335 56.0436 216.409 55.3633C217.483 54.6471 218.934 54.2891 220.76 54.2891C222.586 54.2891 224.036 54.6471 225.11 55.3633C226.185 56.0436 227.008 56.9567 227.581 58.1025C228.154 59.2126 228.512 60.4837 228.655 61.916C228.834 63.3483 228.924 64.8164 228.924 66.3203V95.9688C228.924 97.4727 228.834 98.9587 228.655 100.427C228.512 101.859 228.154 103.148 227.581 104.294C227.008 105.404 226.185 106.299 225.11 106.979C224.036 107.66 222.586 108 220.76 108C218.934 108 217.483 107.66 216.409 106.979C215.335 106.299 214.511 105.404 213.938 104.294C213.366 103.148 212.99 101.859 212.811 100.427C212.667 98.9587 212.596 97.4727 212.596 95.9688V66.3203ZM229.031 40.9688C229.031 43.7259 228.315 45.7848 226.883 47.1455C225.451 48.4704 223.445 49.1328 220.867 49.1328C218.289 49.1328 216.284 48.4704 214.852 47.1455C213.419 45.7848 212.703 43.7259 212.703 40.9688C212.703 38.1042 213.419 36.0273 214.852 34.7383C216.284 33.4492 218.289 32.8047 220.867 32.8047C223.624 32.8047 225.665 33.4492 226.99 34.7383C228.351 36.0273 229.031 38.1042 229.031 40.9688ZM281.346 108C279.52 108 278.069 107.66 276.995 106.979C275.921 106.263 275.097 105.332 274.524 104.187C273.951 103.041 273.576 101.752 273.396 100.319C273.253 98.8512 273.182 97.3652 273.182 95.8613V74.5918C273.182 73.625 273.128 72.6761 273.021 71.7451C272.949 70.8141 272.752 69.9906 272.43 69.2744C272.107 68.5583 271.624 67.9854 270.979 67.5557C270.371 67.0902 269.529 66.8574 268.455 66.8574C267.023 66.8574 265.859 67.3408 264.964 68.3076C264.069 69.2744 263.353 70.5993 262.815 72.2822C262.314 73.9294 261.956 75.8809 261.741 78.1367C261.562 80.3926 261.473 82.8275 261.473 85.4414V95.8613C261.473 97.3652 261.383 98.8512 261.204 100.319C261.061 101.752 260.703 103.041 260.13 104.187C259.593 105.332 258.787 106.263 257.713 106.979C256.639 107.66 255.171 108 253.309 108C251.447 108 249.979 107.66 248.904 106.979C247.83 106.263 247.007 105.332 246.434 104.187C245.896 103.041 245.538 101.752 245.359 100.319C245.216 98.8512 245.145 97.3652 245.145 95.8613V66.4277C245.145 64.9238 245.198 63.4557 245.306 62.0234C245.449 60.5553 245.789 59.2484 246.326 58.1025C246.863 56.9567 247.669 56.0436 248.743 55.3633C249.853 54.6471 251.375 54.2891 253.309 54.2891C255.278 54.2891 256.8 54.6292 257.874 55.3096C258.984 55.9541 259.808 56.7598 260.345 57.7266C260.882 58.6576 261.204 59.6423 261.312 60.6807C261.419 61.7191 261.473 62.5964 261.473 63.3125C261.795 62.2741 262.296 61.2178 262.977 60.1436C263.693 59.0693 264.588 58.1025 265.662 57.2432C266.736 56.3838 267.972 55.6855 269.368 55.1484C270.765 54.5755 272.322 54.2891 274.041 54.2891C276.404 54.2891 278.696 54.862 280.916 56.0078C283.136 57.1536 285.034 59.0156 286.609 61.5938C287.146 60.3763 287.934 59.32 288.973 58.4248C290.011 57.4938 291.193 56.724 292.518 56.1152C293.842 55.5065 295.257 55.0589 296.761 54.7725C298.265 54.4502 299.751 54.2891 301.219 54.2891C303.188 54.2891 305.158 54.6113 307.127 55.2559C309.096 55.9004 310.869 56.9746 312.444 58.4785C314.02 59.9824 315.291 61.9518 316.258 64.3867C317.26 66.7858 317.762 69.7578 317.762 73.3027V95.8613C317.762 97.3652 317.672 98.8512 317.493 100.319C317.314 101.752 316.938 103.041 316.365 104.187C315.792 105.332 314.951 106.263 313.841 106.979C312.767 107.66 311.316 108 309.49 108C307.628 108 306.142 107.66 305.032 106.979C303.958 106.263 303.134 105.332 302.562 104.187C301.989 103.041 301.613 101.752 301.434 100.319C301.29 98.8512 301.219 97.3652 301.219 95.8613V74.5918C301.219 73.625 301.165 72.6761 301.058 71.7451C300.95 70.8141 300.735 69.9906 300.413 69.2744C300.091 68.5583 299.607 67.9854 298.963 67.5557C298.318 67.0902 297.459 66.8574 296.385 66.8574C295.239 66.8574 294.254 67.2155 293.431 67.9316C292.643 68.6478 291.98 69.6325 291.443 70.8857C290.906 72.139 290.494 73.6429 290.208 75.3975C289.922 77.1162 289.725 78.9961 289.617 81.0371V95.8613C289.617 97.3652 289.528 98.8512 289.349 100.319C289.205 101.752 288.847 103.041 288.274 104.187C287.701 105.332 286.86 106.263 285.75 106.979C284.676 107.66 283.208 108 281.346 108ZM373.084 95.8613C373.084 97.3652 373.03 98.8512 372.923 100.319C372.815 101.752 372.493 103.041 371.956 104.187C371.419 105.332 370.613 106.263 369.539 106.979C368.465 107.66 366.961 108 365.027 108C363.058 108 361.518 107.678 360.408 107.033C359.298 106.353 358.475 105.547 357.938 104.616C357.4 103.649 357.06 102.647 356.917 101.608C356.81 100.57 356.756 99.6927 356.756 98.9766C356.434 100.015 355.968 101.071 355.359 102.146C354.786 103.22 354.035 104.187 353.104 105.046C352.173 105.905 351.045 106.621 349.72 107.194C348.431 107.731 346.909 108 345.154 108C343.185 108 341.215 107.678 339.246 107.033C337.277 106.389 335.504 105.314 333.929 103.811C332.353 102.307 331.064 100.355 330.062 97.9561C329.095 95.5212 328.611 92.5312 328.611 88.9863V73.4102C328.611 69.8294 329.095 66.8395 330.062 64.4404C331.064 62.0055 332.353 60.054 333.929 58.5859C335.504 57.082 337.277 56.0078 339.246 55.3633C341.215 54.7188 343.185 54.3965 345.154 54.3965C346.909 54.3965 348.431 54.665 349.72 55.2021C351.045 55.7393 352.173 56.4375 353.104 57.2969C354.035 58.1562 354.786 59.123 355.359 60.1973C355.968 61.2715 356.434 62.3457 356.756 63.4199C356.756 61.6296 357.007 60.1436 357.508 58.9619C358.009 57.7803 358.654 56.8493 359.441 56.1689C360.229 55.4528 361.106 54.9694 362.073 54.7188C363.076 54.4323 364.061 54.2891 365.027 54.2891C366.818 54.2891 368.25 54.6471 369.324 55.3633C370.398 56.0436 371.204 56.9567 371.741 58.1025C372.314 59.2126 372.672 60.5195 372.815 62.0234C372.994 63.4915 373.084 64.9954 373.084 66.5352V95.8613ZM345.154 87.5898C345.154 88.5566 345.19 89.5055 345.262 90.4365C345.333 91.3675 345.53 92.209 345.853 92.9609C346.175 93.7129 346.64 94.3216 347.249 94.7871C347.894 95.2168 348.771 95.4316 349.881 95.4316C351.277 95.4316 352.405 95.1273 353.265 94.5186C354.16 93.874 354.858 92.9072 355.359 91.6182C355.861 90.2933 356.201 88.6462 356.38 86.6768C356.595 84.6715 356.72 82.2904 356.756 79.5332C356.756 78.4232 356.648 77.152 356.434 75.7197C356.255 74.2516 355.914 72.873 355.413 71.584C354.912 70.2949 354.214 69.2028 353.318 68.3076C352.423 67.4124 351.277 66.9648 349.881 66.9648C348.771 66.9648 347.894 67.1976 347.249 67.6631C346.64 68.0928 346.175 68.6657 345.853 69.3818C345.53 70.098 345.333 70.9215 345.262 71.8525C345.19 72.7477 345.154 73.6608 345.154 74.5918V87.5898Z" fill="white"/>
<g clip-path="url(#clip0_9_17)">
<path d="M128 110C144.016 110 157 97.0163 157 81C157 64.9837 144.016 52 128 52C111.984 52 99 64.9837 99 81C99 97.0163 111.984 110 128 110Z" fill="#2C3E50"/>
<path d="M145.98 72.3C147.582 72.3 148.88 71.0016 148.88 69.4C148.88 67.7984 147.582 66.5 145.98 66.5C144.378 66.5 143.08 67.7984 143.08 69.4C143.08 71.0016 144.378 72.3 145.98 72.3Z" fill="#F0C419"/>
<path d="M144.82 67.95C146.299 67.689 147.169 66.8184 147.43 65.34C147.691 66.8184 148.561 67.689 150.04 67.95C148.561 68.211 147.691 69.081 147.43 70.56C147.169 69.081 146.299 68.2116 144.82 67.95Z" fill="white"/>
<path opacity="0.6" d="M134.67 61.28C135.15 61.28 135.54 60.8905 135.54 60.41C135.54 59.9295 135.15 59.54 134.67 59.54C134.19 59.54 133.8 59.9295 133.8 60.41C133.8 60.8905 134.19 61.28 134.67 61.28Z" fill="white"/>
<path opacity="0.2" d="M124.81 59.54C125.29 59.54 125.68 59.1505 125.68 58.67C125.68 58.1895 125.29 57.8 124.81 57.8C124.33 57.8 123.94 58.1895 123.94 58.67C123.94 59.1505 124.33 59.54 124.81 59.54Z" fill="white"/>
<path opacity="0.6" d="M108.57 73.46C109.05 73.46 109.44 73.0705 109.44 72.59C109.44 72.1095 109.05 71.72 108.57 71.72C108.09 71.72 107.7 72.1095 107.7 72.59C107.7 73.0705 108.09 73.46 108.57 73.46Z" fill="white"/>
<path opacity="0.3" d="M119.59 101.3C120.07 101.3 120.46 100.91 120.46 100.43C120.46 99.9495 120.07 99.56 119.59 99.56C119.11 99.56 118.72 99.9495 118.72 100.43C118.72 100.91 119.11 101.3 119.59 101.3Z" fill="white"/>
<path opacity="0.4" d="M138.73 100.14C139.21 100.14 139.6 99.7505 139.6 99.27C139.6 98.7895 139.21 98.4 138.73 98.4C138.25 98.4 137.86 98.7895 137.86 99.27C137.86 99.7505 138.25 100.14 138.73 100.14Z" fill="white"/>
<path opacity="0.6" d="M148.59 88.54C149.07 88.54 149.46 88.1505 149.46 87.67C149.46 87.1895 149.07 86.8 148.59 86.8C148.11 86.8 147.72 87.1895 147.72 87.67C147.72 88.1505 148.11 88.54 148.59 88.54Z" fill="white"/>
<path d="M128 95.5C136.008 95.5 142.5 89.0081 142.5 81C142.5 72.9919 136.008 66.5 128 66.5C119.992 66.5 113.5 72.9919 113.5 81C113.5 89.0081 119.992 95.5 128 95.5Z" fill="#3B97D3"/>
<path opacity="0.88" d="M141.918 85.0646C138.86 90.2104 130.403 94.0036 126.765 95.4437C127.172 95.4785 127.584 95.5 128 95.5C134.596 95.5 140.16 91.0932 141.918 85.0646ZM138.406 78.68C138.442 74.1125 137.799 74.0649 133.766 74.62C131.79 74.892 130.05 75.617 127.386 76.94L121.586 82.16C121.586 82.16 120.694 80.4768 119.266 82.74C118.305 84.2625 118.686 85.64 118.686 85.64C118.686 85.64 120.426 83.7185 122.166 83.32C123.028 83.1222 129.144 79.8939 129.126 83.9C129.11 87.5279 122.285 92.4335 120.727 93.5425C120.955 93.6747 121.187 93.8012 121.422 93.9212C122.393 93.7722 124.1 93.2757 126.805 92.0206C130.83 90.153 138.365 83.7973 138.406 78.68Z" fill="white"/>
<path d="M141.918 85.0646C142.304 83.7442 142.5 82.3756 142.5 81C142.5 73.8683 137.35 67.9436 130.566 66.7308C130.353 66.8236 129.898 66.9379 129.126 67.08C124.063 68.0097 119.356 71.0675 116.366 75.78C115.731 76.505 115.206 78.68 115.206 78.68C115.206 78.68 115.093 79.84 115.786 79.84C116.478 79.84 115.989 77.9956 116.946 76.94C117.87 75.9204 119.843 72.6573 122.746 71.14C124.623 70.1331 130.63 68.6738 133.766 71.14C137.006 73.7007 128.732 68.7951 124.461 75.2899C123.389 76.9209 122.677 74.2134 121.006 75.2C119.138 76.3026 119.81 76.5955 117.526 81.58C115.852 85.2323 117.171 88.6867 116.755 90.1518C117.864 91.5122 119.21 92.6609 120.728 93.5425C122.285 92.4335 129.11 87.5279 129.126 83.9C129.144 79.8945 123.029 83.1222 122.166 83.32C120.426 83.7185 118.686 85.64 118.686 85.64C118.686 85.64 118.306 84.2625 119.266 82.74C120.694 80.4768 121.586 82.16 121.586 82.16C121.586 82.16 124.722 78.263 127.386 76.94C130.051 75.617 131.791 74.892 133.766 74.62C137.8 74.0649 138.443 74.1125 138.406 78.68C138.366 83.7973 130.83 90.153 126.806 92.02C124.1 93.2757 122.394 93.7716 121.423 93.9207C123.089 94.77 124.903 95.2871 126.766 95.4432C130.403 94.0036 138.86 90.2104 141.918 85.0646Z" fill="#3B97D3"/>
<path opacity="0.88" d="M117.526 81.58C119.81 76.5955 119.138 76.3026 121.006 75.2C122.677 74.2134 123.389 76.9209 124.461 75.2899C128.732 68.7951 137.006 73.7007 133.766 71.14C130.63 68.6738 124.623 70.1331 122.746 71.14C119.843 72.6573 117.87 75.9204 116.946 76.94C115.989 77.9956 116.478 79.84 115.786 79.84L115.206 78.68C115.206 78.68 115.731 76.505 116.366 75.78C119.356 71.0675 124.063 68.0097 129.126 67.08C129.898 66.9385 130.353 66.8236 130.566 66.7308C129.719 66.5785 128.861 66.5012 128 66.5C119.992 66.5 113.5 72.9919 113.5 81C113.495 84.335 114.646 87.5687 116.755 90.1518C117.172 88.6867 115.852 85.2323 117.526 81.58Z" fill="white"/>
</g>
<defs>
<clipPath id="clip0_9_17">
<rect width="58" height="58" fill="white" transform="translate(99 52)"/>
</clipPath>
</defs>
</svg>
